<?xml version="1.0" standalone="no"?>
<!DOCTYPE svg PUBLIC "-//W3C//DTD SVG 20010904//EN"
 "http://www.w3.org/TR/2001/REC-SVG-20010904/DTD/svg10.dtd">
<svg version="1.0" xmlns="http://www.w3.org/2000/svg"
 width="1024.000000pt" height="1024.000000pt" viewBox="0 0 1024.000000 1024.000000"
 preserveAspectRatio="xMidYMid meet">

<g transform="translate(0.000000,1024.000000) scale(0.100000,-0.100000)"
fill="#ffa6a6" stroke="none">
<path d="M5020 8293 c-392 -27 -768 -161 -1052 -376 -363 -273 -616 -677 -684
-1092 -13 -78 -18 -192 -21 -510 l-3 -410 -173 0 c-143 0 -177 -3 -203 -17
-31 -17 -64 -70 -64 -103 0 -33 32 -85 66 -105 31 -20 45 -21 288 -18 289 3
290 4 334 88 22 44 22 48 22 490 0 480 6 555 54 721 119 405 487 793 911 959
222 86 374 114 630 114 271 0 455 -37 660 -132 208 -97 341 -189 500 -347 205
-203 325 -403 393 -654 l26 -96 5 -522 c6 -507 7 -522 27 -549 11 -15 33 -37
48 -48 26 -20 40 -21 291 -21 252 0 265 1 292 21 15 11 35 40 43 63 14 39 13
44 -5 78 -40 73 -55 78 -251 81 l-174 3 0 408 c0 452 -8 531 -70 723 -43 130
-157 356 -237 467 -320 446 -831 731 -1403 781 -111 9 -154 10 -250 3z"/>
<path d="M4779 7795 c-497 -99 -925 -514 -1011 -980 -10 -53 -13 -244 -13
-780 0 -692 1 -711 20 -744 11 -19 33 -43 48 -55 l28 -21 1537 -5 1537 -5 0
-97 0 -98 -565 -1 c-410 0 -574 -3 -600 -12 -41 -14 -80 -68 -80 -111 0 -17 9
-45 20 -63 39 -65 12 -63 722 -63 l644 0 44 23 c61 30 82 72 78 155 -4 60 -3
63 16 56 50 -16 111 -15 146 4 53 29 75 75 74 150 l-2 62 65 0 c71 0 110 15
142 56 39 50 17 143 -41 176 -19 11 -331 13 -1666 16 l-1643 2 4 608 c3 543 6
614 22 677 22 88 90 223 149 297 99 125 279 243 436 288 150 43 354 37 509
-14 218 -70 429 -274 510 -491 45 -120 51 -184 51 -561 l0 -354 -707 0 c-390
0 -726 -5 -747 -10 -111 -25 -127 -167 -25 -222 32 -17 82 -18 965 -18 l931 0
34 23 c19 12 44 42 57 67 l23 45 -4 505 c-3 572 -3 569 -91 755 -63 133 -125
176 -201 139 -63 -29 -80 -98 -50 -196 8 -27 12 -48 10 -48 -2 0 -20 32 -40
71 -94 187 -271 372 -446 467 -68 37 -84 52 -53 52 28 0 74 56 74 90 0 99
-137 173 -322 174 -94 1 -98 0 -127 -28 -26 -25 -31 -37 -31 -77 0 -32 6 -55
21 -73 l20 -26 -124 0 -125 0 19 37 c24 47 24 70 0 109 -37 61 -109 76 -242
49z m-517 -578 c-103 -132 -160 -237 -197 -363 -24 -84 -45 -250 -45 -366 0
-37 -4 -58 -11 -58 -20 0 -4 289 21 389 23 93 80 223 131 298 50 73 93 122
102 116 4 -3 4 -10 -1 -16z m2160 -507 c45 -35 49 -63 46 -269 l-3 -193 -37
-34 c-30 -27 -46 -34 -78 -34 -48 0 -85 22 -106 61 -21 41 -20 388 1 429 30
58 127 80 177 40z m-2162 -736 c0 -85 -4 -164 -10 -174 -5 -10 -25 -28 -44
-39 -60 -37 -122 -23 -163 38 -21 32 -23 44 -23 182 l0 149 120 0 120 0 0
-156z"/>
<path d="M2691 5450 c-18 -4 -47 -21 -64 -38 -50 -50 -39 -138 22 -179 23 -16
59 -18 321 -21 l295 -3 1 -69 c1 -77 16 -109 67 -140 61 -38 144 -14 179 51
26 48 26 287 0 338 -35 70 -45 71 -437 70 -192 -1 -365 -5 -384 -9z"/>
<path d="M2632 5000 c-98 -23 -130 -142 -56 -211 22 -21 37 -24 115 -27 l89
-4 0 -104 0 -104 -90 0 c-103 0 -141 -14 -165 -60 -20 -39 -19 -79 5 -117 34
-56 63 -68 161 -66 l86 2 7 -52 c3 -29 6 -75 6 -103 l0 -51 -83 -5 c-65 -3
-90 -9 -114 -26 -65 -46 -69 -133 -8 -189 l35 -33 414 0 c404 0 414 0 440 21
56 44 70 109 36 164 -34 55 -76 65 -275 65 l-175 0 0 105 0 105 344 0 344 0 4
-177 c3 -195 11 -222 71 -267 26 -20 38 -20 335 -17 342 3 347 4 384 71 34 63
6 129 -69 162 -36 16 -62 19 -122 16 l-76 -3 -3 60 c-2 33 -1 79 3 101 6 41 6
42 55 48 120 16 168 138 84 217 l-26 24 -548 3 -548 2 -3 168 c-4 145 -7 171
-24 201 -26 44 -62 70 -111 81 -47 11 -475 11 -522 0z"/>
<path d="M3625 5001 c-94 -23 -132 -102 -85 -178 38 -63 36 -63 490 -63 454 0
463 1 500 62 26 43 25 77 -3 119 -46 69 -47 69 -482 68 -214 -1 -403 -4 -420
-8z"/>
<path d="M7500 4999 c-94 -39 -114 -150 -39 -214 25 -20 41 -25 87 -25 70 0
112 23 136 75 23 47 11 97 -33 139 -34 32 -106 44 -151 25z"/>
<path d="M4965 4879 c-162 -56 -267 -183 -297 -360 -24 -138 25 -282 129 -380
32 -30 68 -61 81 -69 l22 -15 -30 -314 c-16 -172 -30 -325 -30 -340 l0 -27
281 0 281 1 -6 100 c-4 55 -18 208 -32 340 -23 223 -23 241 -8 250 140 84 224
227 224 384 0 199 -114 362 -298 427 -90 32 -229 33 -317 3z"/>
<path d="M5843 4530 c-17 -10 -37 -28 -42 -39 -28 -51 0 -144 51 -172 18 -10
212 -12 898 -10 744 2 879 5 903 17 33 17 67 69 67 102 0 32 -25 76 -56 101
-27 21 -29 21 -908 21 -855 0 -882 -1 -913 -20z"/>
<path d="M5764 4090 c-106 -32 -112 -193 -7 -236 24 -11 60 -14 113 -12 l78 3
6 -68 c3 -38 13 -82 22 -98 34 -66 132 -89 207 -49 l38 21 -3 -308 c-2 -295
-2 -310 18 -343 11 -19 35 -45 54 -57 32 -22 41 -23 266 -23 145 0 234 -4 234
-10 0 -5 -43 -55 -96 -110 l-96 -100 -972 0 c-921 0 -975 1 -1039 19 -38 10
-93 36 -123 56 -52 36 -134 119 -134 135 0 5 44 10 98 12 89 3 102 6 134 30
64 49 69 80 66 354 l-3 241 -28 36 c-53 70 -155 73 -211 6 -26 -31 -26 -31
-26 -225 l0 -194 -689 0 c-758 0 -721 3 -721 -60 0 -35 60 -116 202 -277 434
-490 969 -791 1572 -885 187 -29 577 -31 761 -5 435 64 836 230 1200 499 172
127 488 455 588 610 22 35 22 81 -1 101 -17 15 -59 17 -405 17 l-387 0 0 409
c0 407 0 408 -22 441 -13 18 -36 43 -51 54 -27 20 -41 21 -320 23 -161 1 -306
-2 -323 -7z m-1717 -1242 c55 -107 211 -261 313 -310 194 -94 228 -98 810 -98
l490 0 0 -105 c0 -100 -1 -105 -22 -110 -200 -46 -552 -68 -749 -46 -501 57
-919 250 -1316 609 -46 40 -92 87 -104 103 l-20 29 280 0 280 0 38 -72z"/>
<path d="M6806 4090 c-15 -5 -37 -17 -48 -27 -43 -38 -48 -69 -48 -323 0 -269
5 -295 62 -330 31 -19 50 -20 362 -20 310 0 330 1 361 20 17 11 40 38 50 61
17 37 17 44 4 82 -9 26 -26 50 -48 64 -33 22 -40 23 -277 23 l-244 0 0 105 0
105 311 0 c295 0 313 1 344 20 37 23 67 85 58 121 -3 13 -15 37 -26 53 -38 54
-52 56 -459 55 -205 0 -386 -5 -402 -9z"/>
<path d="M2742 3620 c-59 -36 -72 -100 -35 -172 29 -60 10 -58 742 -58 l669 0
31 26 c17 14 36 43 42 64 10 32 9 44 -7 76 -11 21 -34 49 -53 61 l-34 23 -661
0 c-645 0 -662 -1 -694 -20z"/>
<path d="M5723 3625 c-61 -26 -67 -48 -73 -262 l-5 -193 -360 -3 c-325 -2
-364 -4 -388 -20 -79 -51 -70 -167 16 -214 29 -16 69 -18 458 -18 l425 0 41
27 c70 46 75 73 71 364 -3 228 -5 251 -23 278 -34 51 -101 68 -162 41z"/>
</g>
</svg>
